<svg width="80" height="78" viewBox="0 0 80 78" fill="none" xmlns="http://www.w3.org/2000/svg">
<path d="M2.2162 62.9103C3.63443 56.6048 5.05578 50.1672 6.93203 44.0082C7.05983 43.4831 10.6212 44.123 10.6181 44.2552C9.77319 50.7108 8.47337 56.8877 7.17043 63.1967C6.64676 65.8261 5.04172 70.2738 5.3063 73.7214C6.83317 72.5783 8.36317 71.3031 9.89317 70.0279C8.39756 69.8491 6.56234 69.3951 6.56234 69.3951C13.2662 49.3644 23.9739 30.781 38.7131 17.3499C49.9186 6.98363 64.5609 -2.34973 79.3673 0.888918C81.3178 1.34646 76.4695 1.46017 75.7809 1.30646C68.4338 -0.24498 58.344 6.84894 52.358 11.1603C46.1383 15.5967 40.5885 20.9799 35.4842 27.0384C25.7462 38.7732 18.6034 52.9698 12.7195 67.6025C14.8384 65.8164 16.8421 64.0268 18.8489 62.105C20.0267 61.0834 23.3232 63.1702 24.149 62.4022C18.5991 67.7854 12.8344 72.5005 6.73 76.9405C5.91048 77.4441 2.106 77.3257 1.42991 76.6433C-1.62033 73.9027 1.44006 66.4578 2.2162 62.9103Z" fill="black"/>
</svg>
