<svg width="99" height="44" viewBox="0 0 99 44" fill="none" xmlns="http://www.w3.org/2000/svg">
<path d="M92.9349 28.6517C89.4364 23.523 85.8891 18.2745 82.0219 13.4902C81.7217 13.0675 78.6806 15.2877 78.7296 15.4074C81.7549 20.9367 85.0999 26.0019 88.494 31.1867C89.8907 33.3565 92.9126 36.6968 93.8722 39.978C92.0742 39.6307 90.2273 39.1638 88.3803 38.6968C89.6888 37.8468 91.2125 36.5889 91.2125 36.5889C78.0839 21.3049 61.7903 9.18408 43.598 3.6348C29.7131 -0.726325 13.0384 -2.56427 0.596844 7.19593C-1.03136 8.51 3.45202 6.39026 4.02956 5.93351C10.2226 1.14135 21.9439 3.015 28.9336 4.22078C36.181 5.43393 43.1447 7.82217 49.9355 11.0337C62.9525 17.3222 74.4492 27.0577 84.9442 37.7702C82.3793 37.1052 79.9189 36.384 77.4095 35.5431C75.9737 35.147 73.6799 38.5718 72.6553 38.2467C79.619 40.6349 86.5467 42.3122 93.6898 43.5815C94.6165 43.6672 98.0622 41.8136 98.4439 40.8779C100.284 36.9669 94.8832 31.5471 92.9349 28.6517Z" fill="black"/>
</svg>
